#!OML:ASF H:\Terrain\Patient Classification 1\Walking\liu\liu.ASF
:FULLY-SPECIFIED
:DEGREES
501
root 10.606000 16.899599 34.084999 5.804500 4.894980 4.942820
lowerback -3.699730 -2.637845 -2.925600
upperback 0.224338 -3.298780 0.829875
thorax 2.737375 -1.726195 2.083540
lowerneck -11.859000 -1.424710 -5.248050
upperneck 12.163050 -1.678995 5.530550
head 6.182300 -0.508840 2.723195
rclavicle 0.000000 -0.000000
rhumerus -24.747749 2.652030 -41.643902
rradius 16.142550
rwrist -8.207650
rhand -14.723600 -10.243750
rfingers 3.562510
rthumb -1.391785 -25.224550
lclavicle 0.000000 -0.000000
lhumerus -7.994950 -12.246850 44.375599
lradius 17.816401
lwrist 3.793680
lhand -6.160450 -12.961600
lfingers 3.562510
lthumb 6.873900 1.801330
rfemur -21.134600 4.431515 5.602450
rtibia 13.893250
rfoot -12.283250 -6.640550
rtoes -13.145400
lfemur 9.775000 0.557680 -13.814400
ltibia 0.000000
lfoot -8.232250 1.839570
ltoes -1.418330
502
root 10.591600 16.855499 34.276699 5.858500 4.803030 5.448430
lowerback -3.806420 -2.625030 -3.102430
upperback 0.250183 -3.252350 0.714370
thorax 2.825695 -1.708400 2.056520
lowerneck -11.873600 -1.412355 -5.124250
upperneck 12.034200 -1.669745 5.437450
head 6.129050 -0.503470 2.659840
rclavicle -0.000000 -0.000000
rhumerus -24.774700 2.372045 -41.517250
rradius 15.895650
rwrist -7.953700
rhand -14.429050 -10.080450
rfingers 3.562510
rthumb -1.107325 -25.064600
lclavicle -0.000000 -0.000000
lhumerus -8.423850 -12.632750 44.622650
lradius 17.732100
lwrist 3.990695
lhand -5.528950 -12.820750
lfingers 3.562510
lthumb 7.482350 1.898945
rfemur -21.050751 3.882480 5.725150
rtibia 14.250050
rfoot -12.283250 -6.640550
rtoes -13.145400
lfemur 10.138250 0.556655 -14.008850
ltibia 0.000000
lfoot -8.290550 1.587135
ltoes -0.600175
503
root 10.562700 16.822001 34.446899 5.772360 4.703680 5.890350
lowerback -3.651740 -2.644950 -3.382925
upperback 0.233513 -3.260870 0.645575
thorax 2.746185 -1.717480 2.152235
lowerneck -11.840100 -1.294640 -4.874845
upperneck 11.897250 -1.543775 5.282200
head 6.044850 -0.443436 2.569470
rclavicle -0.000000 -0.000000
rhumerus -24.742599 2.315055 -41.508400
rradius 15.457400
rwrist -7.820650
rhand -14.452850 -11.140350
rfingers 3.562510
rthumb -1.130325 -26.124201
lclavicle -0.000000 -0.000000
lhumerus -8.980300 -12.985650 44.949200
lradius 17.338949
lwrist 3.109620
lhand -6.546700 -13.264900
lfingers 3.562510
lthumb 6.501600 1.522495
rfemur -21.044001 3.638900 5.772650
rtibia 14.659250
rfoot -12.283250 -6.640550
rtoes -13.145400
lfemur 10.455750 0.569635 -14.150650
ltibia 0.000000
lfoot -8.102200 1.591380
ltoes -0.639010
504
root 10.533300 16.813200 34.619598 5.781710 4.778710 5.721010
lowerback -3.559885 -2.648390 -3.316080
upperback 0.182370 -3.280235 0.672865
thorax 2.638305 -1.721825 2.151990
lowerneck -11.854700 -1.318080 -4.977970
upperneck 11.855800 -1.581915 5.446350
head 6.041700 -0.448265 2.644055
rclavicle -0.000000 0.000000
rhumerus -24.793100 2.165745 -41.430199
rradius 15.085400
rwrist -7.630300
rhand -14.624000 -12.438100
rfingers 3.562510
rthumb -1.295615 -27.420099
lclavicle -0.000000 0.000000
lhumerus -9.254250 -12.524800 45.094849
lradius 17.352900
lwrist 3.892395
lhand -6.954400 -13.307350
lfingers 3.562510
lthumb 6.108550 1.504265
rfemur -21.142000 3.404785 6.129250
rtibia 15.189400
rfoot -12.283250 -6.640550
rtoes -13.145400
lfemur 10.726700 0.516885 -13.988200
ltibia -0.000000
lfoot -7.824600 1.961475
ltoes -2.933330
505
root 10.504500 16.820400 34.812401 6.086480 5.032040 4.716650
lowerback -3.778550 -2.648300 -2.771230
upperback 0.122946 -3.322420 0.822510
thorax 2.658420 -1.728950 1.985650
lowerneck -11.806000 -1.362605 -5.173350
upperneck 11.725400 -1.630125 5.665650
head 5.996100 -0.460106 2.749695
rclavicle 0.000000 -0.000000
rhumerus -24.879400 1.895585 -41.232800
rradius 14.832250
rwrist -7.302750
rhand -14.160450 -13.307800
rfingers 3.562510
rthumb -0.847900 -28.294300
lclavicle 0.000000 -0.000000
lhumerus -9.605900 -12.668650 45.332001
lradius 17.173100
lwrist 4.109275
lhand -6.492850 -13.308150
lfingers 3.562510
lthumb 6.553500 1.475920
rfemur -21.333401 3.176750 6.860900
rtibia 15.614000
rfoot -12.283250 -6.640550
rtoes -13.145400
lfemur 10.896650 0.383088 -13.358450
ltibia 0.000000
lfoot -7.580400 2.134540
ltoes -4.760820
506
root 10.476500 16.809299 34.985901 5.934920 4.984940 5.300970
lowerback -3.556260 -2.609000 -3.084925
upperback 0.074667 -3.253785 0.763060
thorax 2.503255 -1.698180 2.128785
lowerneck -11.843300 -1.458875 -5.228000
upperneck 11.646450 -1.735090 5.658700
head 5.988200 -0.511655 2.735370
rclavicle 0.000000 0.000000
rhumerus -25.032749 1.679465 -40.991451
rradius 14.692750
rwrist -7.129800
rhand -13.268300 -13.706050
rfingers 3.562510
rthumb 0.013735 -28.695950
lclavicle 0.000000 0.000000
lhumerus -10.152200 -13.130750 45.808800
lradius 16.731100
lwrist 2.859445
lhand -6.006600 -12.886500
lfingers 3.562510
lthumb 7.022150 1.866235
rfemur -21.351650 2.917175 6.743400
rtibia 16.080549
rfoot -12.283250 -6.640550
rtoes -13.145400
lfemur 11.293300 0.363856 -13.574800
ltibia 0.000000
lfoot -7.300600 2.100755
ltoes -5.357350
507
root 10.458900 16.801701 35.180599 5.846860 4.964870 4.963050
lowerback -3.542720 -2.526510 -2.852615
upperback 0.047202 -3.167225 0.823130
thorax 2.436745 -1.648410 2.078160
lowerneck -11.692850 -1.395080 -5.048300
upperneck 11.606050 -1.609085 5.265050
head 5.914750 -0.492273 2.566590
rclavicle 0.000000 -0.000000
rhumerus -25.195700 1.393400 -40.685398
rradius 14.591000
rwrist -6.976100
rhand -13.475800 -13.293650
rfingers 3.562510
rthumb -0.186653 -28.283350
lclavicle 0.000000 -0.000000
lhumerus -10.487250 -12.474750 46.117599
lradius 16.663250
lwrist 2.875835
lhand -4.453885 -12.393900
lfingers 3.562510
lthumb 8.517600 2.242655
rfemur -21.299101 2.462990 7.260850
rtibia 16.574650
rfoot -12.283250 -6.640550
rtoes -13.145400
lfemur 11.671100 0.363846 -13.318800
ltibia -0.000000
lfoot -7.101900 2.128775
ltoes -6.600250
508
root 10.445800 16.787300 35.371700 6.118980 4.710500 4.704990
lowerback -3.713720 -2.488130 -2.675975
upperback 0.023475 -3.125075 0.892540
thorax 2.491390 -1.624565 2.045645
lowerneck -11.969950 -1.550635 -5.303600
upperneck 11.657950 -1.759640 5.435600
head 6.017050 -0.555265 2.658075
rclavicle -0.000000 -0.000000
rhumerus -25.119749 1.094335 -40.352749
rradius 14.241650
rwrist -6.533600
rhand -14.284850 -12.258900
rfingers 3.562510
rthumb -0.968050 -27.244350
lclavicle -0.000000 -0.000000
lhumerus -10.884700 -11.867050 46.420799
lradius 16.434799
lwrist 3.251860
lhand -4.851410 -12.675400
lfingers 3.562510
lthumb 8.134900 1.993300
rfemur -21.481100 2.048675 7.723200
rtibia 17.101151
rfoot -12.283250 -6.640550
rtoes -13.145400
lfemur 11.853550 0.458302 -13.131400
ltibia -0.000000
lfoot -6.862100 2.148580
ltoes -8.105450
509
root 10.421100 16.777800 35.521999 6.277590 4.330830 5.021730
lowerback -3.505970 -2.435405 -2.870620
upperback -0.065840 -3.050295 0.878690
thorax 2.291290 -1.585850 2.170910
lowerneck -12.203500 -1.593455 -5.388350
upperneck 11.703300 -1.797220 5.539200
head 6.089500 -0.561195 2.712450
rclavicle 0.000000 -0.000000
rhumerus -25.036249 0.847260 -40.112701
rradius 13.726050
rwrist -6.069550
rhand -14.451400 -11.321650
rfingers 3.562510
rthumb -1.128935 -26.305550
lclavicle 0.000000 -0.000000
lhumerus -11.242750 -11.134900 46.554649
lradius 16.087250
lwrist 2.311570
lhand -5.284950 -12.987800
lfingers 3.562510
lthumb 7.717400 1.714075
rfemur -21.669750 1.922745 7.748750
rtibia 17.539900
rfoot -12.283250 -6.640550
rtoes -13.145400
lfemur 12.005000 0.597640 -13.240250
ltibia -0.000000
lfoot -6.402600 2.245220
ltoes -9.549350
510
root 10.399000 16.787399 35.725300 6.083390 4.475890 3.968260
lowerback -3.470120 -2.390735 -2.272130
upperback -0.078492 -3.044600 0.968360
thorax 2.203400 -1.569110 1.937155
lowerneck -12.274000 -1.532700 -5.102250
upperneck 11.800500 -1.739805 5.260400
head 6.121300 -0.544270 2.567415
rclavicle 0.000000 0.000000
rhumerus -25.078650 0.570380 -39.964550
rradius 13.370800
rwrist -5.701500
rhand -14.224350 -11.484800
rfingers 3.562510
rthumb -0.909645 -26.470800
lclavicle 0.000000 0.000000
lhumerus -11.865450 -11.175400 46.900452
lradius 15.789150
lwrist 3.037405
lhand -4.729915 -12.484400
lfingers 3.562510
lthumb 8.251900 2.174650
rfemur -21.475700 1.588095 8.572750
rtibia 17.994150
rfoot -12.283250 -6.640550
rtoes -13.145400
lfemur 12.441450 0.550795 -12.606450
ltibia 0.000000
lfoot -5.898600 2.354480
ltoes -10.316000
511
root 10.359300 16.795601 35.893700 6.034740 4.330030 3.202250
lowerback -3.258805 -2.421145 -2.002800
upperback -0.159665 -3.119060 1.081325
thorax 1.991825 -1.597300 1.917475
lowerneck -12.290850 -1.375065 -4.943485
upperneck 11.678700 -1.594875 5.356650
head 6.057400 -0.450801 2.597950
rclavicle 0.000000 0.000000
rhumerus -25.043800 0.524735 -39.869301
rradius 13.077600
rwrist -5.243000
rhand -14.392000 -11.385550
rfingers 3.562510
rthumb -1.071555 -26.370050
lclavicle 0.000000 0.000000
lhumerus -12.265450 -10.230400 46.765999
lradius 15.389650
lwrist 2.016630
lhand -4.778615 -12.548750
lfingers 3.562510
lthumb 8.205000 2.114170
rfemur -21.417450 1.520710 9.206600
rtibia 18.365150
rfoot -12.283250 -6.640550
rtoes -13.145400
lfemur 12.698250 0.618850 -12.093250
ltibia 0.000000
lfoot -5.142950 2.369600
ltoes -9.714500
512
root 10.334300 16.797199 36.069199 5.929330 4.006150 3.315560
lowerback -3.112445 -2.202980 -2.018930
upperback -0.188302 -2.832795 1.100515
thorax 1.854360 -1.452835 1.992910
lowerneck -12.348250 -1.668005 -5.660500
upperneck 11.556350 -1.880390 5.915900
head 6.087300 -0.569725 2.890615
rclavicle 0.000000 -0.000000
rhumerus -25.024000 -0.080558 -39.262051
rradius 12.762050
rwrist -4.681195
rhand -15.084650 -10.648350
rfingers 3.562510
rthumb -1.740485 -25.624001
lclavicle 0.000000 -0.000000
lhumerus -12.813800 -10.638450 47.451950
lradius 15.016450
lwrist 3.156430
lhand -5.907650 -12.936050
lfingers 3.562510
lthumb 7.117500 1.810040
rfemur -21.246799 1.238440 9.458100
rtibia 18.708000
rfoot -12.283250 -6.640550
rtoes -13.145400
lfemur 12.989800 0.751905 -12.099150
ltibia -0.000000
lfoot -4.290795 2.519605
ltoes -9.384050
513
root 10.301500 16.805000 36.232498 6.235270 4.002980 2.964160
lowerback -3.092870 -2.104200 -1.813150
upperback -0.373686 -2.717215 1.152745
thorax 1.624510 -1.385020 1.954900
lowerneck -12.064150 -1.785830 -5.902200
upperneck 11.641050 -1.987630 5.894200
head 6.085300 -0.651075 2.905895
rclavicle -0.000000 0.000000
rhumerus -25.120550 -0.634185 -38.796051
rradius 12.428050
rwrist -3.821270
rhand -14.079700 -10.953950
rfingers 3.562510
rthumb -0.769920 -25.941050
lclavicle -0.000000 0.000000
lhumerus -13.371400 -10.072050 47.706951
lradius 14.493800
lwrist 2.571775
lhand -4.580820 -12.187350
lfingers 3.562510
lthumb 8.395400 2.459620
rfemur -21.257900 1.157845 9.827100
rtibia 19.052650
rfoot -12.283250 -6.640550
rtoes -13.145400
lfemur 13.018400 0.730290 -11.838350
ltibia 0.000000
lfoot -3.277185 2.831965
ltoes -9.892750
